<?xml version="1.0" standalone="no"?><!DOCTYPE svg PUBLIC "-//W3C//DTD SVG 1.1//EN" "http://www.w3.org/Graphics/SVG/1.1/DTD/svg11.dtd"><svg t="1585481791342" class="icon" viewBox="0 0 1024 1024" version="1.1" xmlns="http://www.w3.org/2000/svg" p-id="2734" xmlns:xlink="http://www.w3.org/1999/xlink" width="200" height="200"><defs><style type="text/css"></style></defs><path d="M1022.4 852.8v6.4c0 89.6-73.6 163.2-163.2 163.2H164.8C75.2 1022.4 1.6 948.8 1.6 859.2V164.8C1.6 75.2 75.2 1.6 164.8 1.6h694.4c89.6 0 163.2 73.6 163.2 163.2v688zM843.2 649.6c-41.6-12.8-96-35.2-156.8-57.6 38.4-70.4 70.4-144 89.6-224H572.8v-60.8h244.8v-44.8l-244.8 3.2V145.6h-102.4c-19.2 0-22.4 19.2-22.4 19.2v102.4H203.2v41.6H448V368H244.8v41.6h408c-16 51.2-38.4 102.4-64 147.2-128-41.6-264-76.8-353.6-54.4-41.6 9.6-83.2 32-112 64-96 118.4-25.6 292.8 176 292.8 118.4 0 235.2-67.2 324.8-179.2 134.4 67.2 398.4 176 398.4 176v-156.8c0 1.6-32-1.6-179.2-49.6z m-561.6 142.4c-160 0-204.8-124.8-124.8-195.2 25.6-22.4 57.6-38.4 89.6-44.8 92.8-9.6 188.8 35.2 292.8 86.4-75.2 94.4-168 153.6-257.6 153.6z"  p-id="2735"></path></svg>