<?xml version="1.0" standalone="no"?><!DOCTYPE svg PUBLIC "-//W3C//DTD SVG 1.1//EN" "http://www.w3.org/Graphics/SVG/1.1/DTD/svg11.dtd"><svg t="1585481712968" class="icon" viewBox="0 0 1024 1024" version="1.1" xmlns="http://www.w3.org/2000/svg" p-id="2598" xmlns:xlink="http://www.w3.org/1999/xlink" width="200" height="200"><defs><style type="text/css"></style></defs><path d="M190.778489 541.761652c107.073837-23.971755 95.887018-156.615463 92.690784-185.381568-6.392468-46.345392-59.130328-123.055007-126.25124-116.662539-86.298316 6.392468-102.279486 139.036176-102.279486 139.036177-12.784936 59.130328 27.167988 188.577802 135.839942 163.00793z m116.662539 231.726961c-3.196234 9.588702-9.588702 33.560456-3.196234 55.934094 12.784936 46.345392 52.73786 49.541626 52.73786 49.541626h55.934094v-142.23241h-59.130328c-27.167988 6.392468-43.149158 27.167988-46.345392 36.75669z m86.298316-455.463336c59.130328 0 107.073837-70.317147 107.073837-159.811697S452.869672 0 393.739344 0s-107.073837 70.317147-107.073837 159.811697c-1.598117 86.298316 47.943509 158.21358 107.073837 158.21358z m258.894949 11.186819c79.905848 9.588702 132.643708-76.709614 142.23241-145.428645 9.588702-67.120913-43.149158-145.428644-99.083252-156.615463-59.130328-15.98117-129.447474 79.905848-135.839942 142.232411-3.196234 73.513381 12.784936 148.624878 92.690784 159.811697z m196.568387 391.538657s-126.251241-99.083252-196.568387-206.157089c-99.083252-156.615463-236.521311-95.887018-286.062937-15.98117-46.345392 79.905848-119.858773 132.643708-129.447475 145.428644-9.588702 15.98117-150.222995 92.690784-119.858772 231.726961 30.364222 142.23241 142.23241 139.036176 142.23241 139.036176s79.905848 6.392468 175.792867-15.98117 175.792867 6.392468 175.792866 6.392468 218.942025 73.513381 278.072353-70.317146c55.934094-140.634293-39.952924-214.147674-39.952925-214.147674zM480.037661 936.496544h-142.232411c-62.326562-12.784936-86.298316-55.934094-86.298316-62.326562-3.196234-6.392468-20.775521-43.149158-9.588702-102.279486 27.167988-86.298316 102.279486-95.887018 102.279486-95.887018h73.513381v-92.690784h63.924679L480.037661 936.496544z m262.091182-3.196234H579.120913c-62.326562-19.177404-63.924679-62.326562-63.924679-62.326562V687.190297h63.924679v166.204164c3.196234 19.177404 23.971755 20.775521 23.971754 20.775521h67.120913V690.38653h70.317147v242.91378z m230.128844-492.220027c0-30.364222-23.971755-129.447474-123.055007-129.447474s-107.073837 92.690784-107.073837 153.419229 6.392468 148.624878 126.251241 142.23241c116.662539 3.196234 103.877603-135.839942 103.877603-166.204165z"  p-id="2599"></path></svg>