<?xml version="1.0" standalone="no"?><!DOCTYPE svg PUBLIC "-//W3C//DTD SVG 1.1//EN" "http://www.w3.org/Graphics/SVG/1.1/DTD/svg11.dtd"><svg t="1585481816891" class="icon" viewBox="0 0 1024 1024" version="1.1" xmlns="http://www.w3.org/2000/svg" p-id="2868" xmlns:xlink="http://www.w3.org/1999/xlink" width="200" height="200"><defs><style type="text/css"></style></defs><path d="M941.987091 938.268637c-143.692946 153.272476-335.283541 54.284002-335.283541 54.284002-137.306593 12.772706-242.68142-25.545413-242.68142-25.545413C119.744122 896.757342 59.073767 671.638393 59.073767 671.638393 1.596588 524.75227 36.721531 409.797913 36.721531 409.797913c-95.795297-182.011065 38.318119-322.510835 38.318119-322.510835 162.852006-162.852006 354.4426-47.897649 354.4426-47.897648 290.579069-41.511296 445.448133 140.49977 445.448133 140.499769C1053.748272 355.513911 999.46427 607.774861 999.46427 607.774861 1072.907331 807.348397 941.987091 938.268637 941.987091 938.268637zM625.86261 326.775322c73.443061 108.568004 121.34071 63.863532 121.34071 63.863532 76.636238-67.056708-12.772706-143.692946-12.772706-143.692947-137.306593-127.727063-360.828954-51.090825-360.828954-51.090825-166.045182 54.284002-130.92024 207.556478-130.92024 207.556478 51.090825 137.306593 274.613186 156.465652 274.613186 156.465652 134.113416 9.57953 134.113416 83.022591 134.113416 83.022591 6.386353 79.829415-127.727063 95.795297-127.727063 95.795298-114.954357-6.386353-137.306593-54.284002-137.306593-54.284002-51.090825-67.056708-63.863532-79.829415-95.795297-79.829414-79.829415-3.193177-70.249885 83.022591-70.249885 83.022591 38.318119 159.658829 261.84048 156.465652 261.84048 156.465652 309.738128 19.159059 325.704011-191.590595 325.704011-191.590595 12.772706-143.692946-169.238359-194.783771-169.238359-194.783771-132.516828-22.352236-205.959889-57.477178-205.959889-57.477179-76.636238-44.704472-15.965883-95.795297-15.965883-95.795297 143.692946-73.443061 209.153066 22.352236 209.153066 22.352236z"  p-id="2869"></path></svg>