<?xml version="1.0" standalone="no"?><!DOCTYPE svg PUBLIC "-//W3C//DTD SVG 1.1//EN" "http://www.w3.org/Graphics/SVG/1.1/DTD/svg11.dtd"><svg t="1585483909786" class="icon" viewBox="0 0 1024 1024" version="1.1" xmlns="http://www.w3.org/2000/svg" p-id="3258" xmlns:xlink="http://www.w3.org/1999/xlink" width="200" height="200"><defs><style type="text/css"></style></defs><path d="M932.8 284.8c0 363.2-240 627.2-590.4 636.8-148.8 12.8-249.6-32-340.8-100.8 100.8 12.8 240-22.4 305.6-91.2-100.8 0-158.4-59.2-192-136h91.2C115.2 558.4 48 489.6 48 379.2c22.4 12.8 44.8 22.4 91.2 22.4-81.6-44.8-123.2-192-68.8-281.6 100.8 113.6 227.2 214.4 432 227.2-59.2-227.2 240-340.8 363.2-192 59.2-12.8 91.2-32 136-59.2-12.8 59.2-44.8 91.2-91.2 113.6 44.8 0 81.6-12.8 113.6-32-12.8 40-59.2 84.8-91.2 107.2z"  p-id="3259"></path></svg>